<?xml version="1.0" encoding="utf-8"?>
<!-- Generator: Adobe Illustrator 26.3.1, SVG Export Plug-In . SVG Version: 6.00 Build 0)  -->
<svg version="1.1" id="Слой_1" xmlns="http://www.w3.org/2000/svg" xmlns:xlink="http://www.w3.org/1999/xlink" x="0px" y="0px"
	 viewBox="0 0 405.2 190" style="enable-background:new 0 0 405.2 190;" xml:space="preserve">
<style type="text/css">
	.st0{fill:#FFFFFF;}
</style>
<path class="st0" d="M375.6,1.4L343.1,48c-1,1.4-2.9,1.7-4.2,0.7l-8.8-6.5c-1.4-1-1.6-2.9-0.6-4.2l30.2-38H40.2C18,0,0,18,0,40.2
	v109.5C0,172,18,190,40.2,190H365c22.2,0,40.2-18,40.2-40.2V40.2C405.2,21.7,392.6,6,375.6,1.4z M63.7,40.3H78v33.9L63.7,91.6V40.3z
	 M126.9,149.7L96.4,97L78,119.3v30.3H63.7V114L78,96.8l46.5-56.5H143l-36.9,44.9l37.2,64.5L126.9,149.7L126.9,149.7z M197.2,151.7
	c-15.6,0-29.1-6.4-38.8-16.5l8.4-9.7c8,8.3,19.1,13.7,30.6,13.7c14.5,0,23.2-7.2,23.2-18c0-11.3-8-14.9-18.5-19.5l-15.9-7
	c-10.3-4.4-22.5-12.2-22.5-28.6c0-16.9,14.8-29.4,34.9-29.4c13.2,0,24.9,5.7,32.7,13.7l-7.5,9.1c-6.8-6.4-14.9-10.4-25.2-10.4
	c-12.4,0-20.7,6.3-20.7,16.2c0,10.7,9.7,14.7,18.4,18.4l15.8,6.8c12.8,5.5,22.8,13.2,22.8,29.7C235,137.7,220.5,151.7,197.2,151.7z
	 M256,153.7c-5.5,0-10.1-4.4-10.1-10.5c0-6.4,4.5-10.7,10.1-10.7c5.5,0,10.1,4.4,10.1,10.7C266.1,149.4,261.5,153.7,256,153.7z
	 M325.9,95.3L283,117.1l22.4-30.3c2.3,1,5.1,0.4,6.7-1.7c1.8-2.4,1.3-5.9-1.2-7.7c-2.4-1.8-5.9-1.3-7.7,1.1c-1.5,2.1-1.4,5,0.3,6.9
	l-22.4,30.3l8.2-47.4l22.5-9.7L328.6,71L325.9,95.3z M305.6,80.2c0.9-1.2,2.5-1.4,3.7-0.6c1.2,0.9,1.4,2.5,0.5,3.7
	c-0.7,1-1.9,1.3-3,0.9c-0.2-0.1-0.5-0.2-0.7-0.4c-0.2-0.2-0.4-0.3-0.6-0.6C304.9,82.4,304.9,81.2,305.6,80.2z M344.3,61l-6.1,8.2
	c-1.9,2.6-5.5,3.1-8.1,1.2L312,56.9c-2.6-1.9-3.1-5.5-1.2-8.1l6.1-8.2c1.9-2.6,5.5-3.1,8-1.2l18.2,13.5
	C345.7,54.8,346.2,58.4,344.3,61z"/>
</svg>
